<svg height="512pt" viewBox="0 -120 512 512" width="512pt" xmlns="http://www.w3.org/2000/svg"><path d="m504.398438 177.679688c0 16.164062-3.285157 29.3125-9.4375 40.007812-29.585938 51.515625-125.363282 46.253906-238.957032 46.253906-137.1875 0-248.398437 7.675782-248.398437-86.261718 0-58.75 43.507812-110.539063 109.660156-141.085938 39.613281-18.300781 87.355469-28.988281 138.738281-28.988281 137.183594 0 248.394532 76.140625 248.394532 170.074219zm0 0" fill="#e87425"/><path d="m504.398438 177.679688c0 16.164062-3.285157 29.3125-9.4375 40.007812-45.320313 11.273438-109.722657 9.195312-181.179688 9.195312-137.183594 0-248.394531 7.675782-248.394531-86.257812 0-39.1875 19.355469-75.28125 51.878906-104.03125 39.613281-18.300781 87.355469-28.988281 138.738281-28.988281 137.183594 0 248.394532 76.140625 248.394532 170.074219zm0 0" fill="#ff903e"/><g fill="#e87425"><path d="m394.386719 36.429688v60.996093c0 6.089844-2.472657 11.597657-6.460938 15.589844-3.992187 3.984375-9.496093 6.460937-15.589843 6.460937-12.179688 0-22.054688-9.875-22.054688-22.050781v-77.136719c15.554688 4.371094 30.316406 9.792969 44.105469 16.140626zm0 0"/><path d="m255.992188 7.605469c7.433593 0 14.785156.222656 22.054687.660156v89.160156c0 6.089844-2.464844 11.597657-6.460937 15.589844-3.992188 3.984375-9.507813 6.460937-15.59375 6.460937-12.175782 0-22.050782-9.875-22.050782-22.050781v-89.160156c7.269532-.4375 14.621094-.660156 22.050782-.660156zm0 0"/><path d="m117.613281 36.429688c13.789063-6.347657 28.550781-11.769532 44.101563-16.140626v77.136719c0 6.089844-2.464844 11.597657-6.457032 15.589844-3.996093 3.984375-9.511718 6.460937-15.59375 6.460937-12.175781 0-22.050781-9.875-22.050781-22.050781zm0 0"/></g><path d="m435.9375 51.144531c-48.167969-32.980469-112.070312-51.144531-179.9375-51.144531s-131.769531 18.164062-179.9375 51.144531c-49.050781 33.582031-76.0625 78.523438-76.0625 126.539063 0 24.777344 7.101562 43.894531 21.707031 58.441406 16.890625 16.824219 43.378907 26.890625 83.359375 31.675781 34.90625 4.175781 77.214844 4.003907 122.011719 3.824219 9.488281-.039062 19.140625-.078125 28.921875-.078125s19.433594.039063 28.921875.078125c9.214844.039062 18.261719.074219 27.128906.074219 18.503907 0 36.207031-.160157 52.933594-.804688 4.199219-.164062 7.46875-3.699219 7.304687-7.894531-.160156-4.195312-3.71875-7.460938-7.890624-7.304688-24.417969.945313-51.136719.835938-79.414063.722657-9.507813-.039063-19.179687-.078125-28.984375-.078125s-19.472656.039062-28.980469.078125c-87.316406.347656-162.726562.65625-194.582031-31.070313-11.59375-11.546875-17.230469-27.136718-17.230469-47.664062 0-52.582032 37.21875-99.398438 94.800781-129.113282v48.855469c0 16.351563 13.304688 29.652344 29.65625 29.652344 7.90625 0 15.351563-3.082031 20.976563-8.691406 5.59375-5.609375 8.675781-13.054688 8.675781-20.960938v-8.363281c0-4.199219-3.402344-7.601562-7.601562-7.601562-4.199219 0-7.605469 3.402343-7.605469 7.601562v8.363281c0 3.851563-1.503906 7.480469-4.222656 10.207031-2.742188 2.734376-6.371094 4.238282-10.222657 4.238282-7.96875 0-14.449218-6.480469-14.449218-14.445313v-56.101562c9.21875-4.039063 18.871094-7.660157 28.894531-10.832031v28.152343c0 4.199219 3.40625 7.605469 7.605469 7.605469 4.199218 0 7.601562-3.40625 7.601562-7.605469v-32.539062c18.066406-4.722657 37.179688-8.011719 57.03125-9.664063v80.984375c0 16.351563 13.304688 29.652344 29.65625 29.652344 7.90625 0 15.351563-3.082031 20.96875-8.683594 5.601563-5.601562 8.683594-13.046875 8.683594-20.96875v-80.984375c19.851562 1.652344 38.957031 4.941406 57.019531 9.660156v71.324219c0 16.351563 13.304688 29.652344 29.65625 29.652344 7.910157 0 15.355469-3.082031 20.96875-8.683594 5.601563-5.601562 8.6875-13.046875 8.6875-20.96875v-48.855469c57.585938 29.714844 94.804688 76.53125 94.804688 129.113282 0 47.46875-29.726563 69.535156-102.601563 76.160156-4.179687.378906-7.261718 4.078125-6.882812 8.261719.378906 4.179687 4.078125 7.265625 8.261718 6.882812 38.113282-3.464843 64.515626-10.890625 83.085938-23.367187 22.4375-15.070313 33.34375-37.292969 33.34375-67.9375 0-48.015625-27.011719-92.957032-76.0625-126.539063zm-165.488281 46.28125c0 3.859375-1.5 7.488281-4.222657 10.207031-2.738281 2.734376-6.371093 4.238282-10.222656 4.238282-7.964844 0-14.449218-6.480469-14.449218-14.445313v-81.917969c4.78125-.191406 9.59375-.300781 14.445312-.300781s9.667969.109375 14.449219.300781zm116.332031 0c0 3.859375-1.503906 7.488281-4.226562 10.207031-2.738282 2.734376-6.367188 4.238282-10.222657 4.238282-7.964843 0-14.445312-6.480469-14.445312-14.445313v-66.933593c10.023437 3.171874 19.675781 6.792968 28.894531 10.832031zm0 0"/><path d="m36.921875 194.585938c-4.855469 4.648437-1.429687 13.09375 5.261719 13.09375 3.726562 0 6.972656-2.835938 7.519531-6.507813.496094-3.339844-1.371094-6.675781-4.441406-8.046875-2.785157-1.238281-6.140625-.648438-8.339844 1.460938zm0 0"/><path d="m58.042969 214.84375c-2.902344 1.710938-4.328125 5.308594-3.417969 8.546875.910156 3.246094 3.941406 5.582031 7.328125 5.582031 3.316406 0 6.300781-2.242187 7.265625-5.402344 2.011719-6.5625-5.347656-12.167968-11.175781-8.726562zm0 0"/><path d="m454.144531 108.796875c1.445313-7.019531-7.199219-11.867187-12.507812-7.167969-5.117188 4.53125-1.785157 13.28125 5.054687 13.28125 3.589844 0 6.730469-2.609375 7.453125-6.113281zm0 0"/><path d="m472.378906 130.164062c.636719-2.992187-.671875-6.195312-3.21875-7.890624-2.792968-1.859376-6.609375-1.636719-9.164062.546874-5.257813 4.5-1.964844 13.382813 4.945312 13.382813 3.554688 0 6.703125-2.570313 7.4375-6.039063zm0 0"/><path d="m432.894531 124.128906c-2.566406 1.992188-3.570312 5.5-2.484375 8.554688 1.058594 2.988281 3.984375 5.039062 7.15625 5.039062 3.730469 0 6.960938-2.808594 7.519532-6.488281 1.011718-6.671875-6.914063-11.195313-12.191407-7.105469zm0 0"/><path d="m75.402344 195.835938c1.726562-6.789063-6.21875-12.019532-11.835938-8-2.664062 1.910156-3.75 5.441406-2.746094 8.539062 1 3.074219 3.980469 5.222656 7.214844 5.222656 3.457032 0 6.519532-2.421875 7.367188-5.761718zm0 0"/></svg>